<svg data-v-0dd9719b="" version="1.0" xmlns="http://www.w3.org/2000/svg" xmlns:xlink="http://www.w3.org/1999/xlink" width="100%" height="100%" viewBox="0 0 340.000000 250.000000" preserveAspectRatio="xMidYMid meet" color-interpolation-filters="sRGB" style="margin: auto;"> <rect data-v-0dd9719b="" x="0" y="0" width="100%" height="100%" fill="#fff" fill-opacity="1" class="background"></rect> <rect data-v-0dd9719b="" x="0" y="0" width="100%" height="100%" fill="url(#watermark)" fill-opacity="1" class="watermarklayer"></rect> <g data-v-0dd9719b="" fill="#333" class="icon-text-wrapper icon-svg-group iconsvg" transform="translate(81.72999572753906,79.68599319490683)"><g class="iconsvg-imagesvg" transform="translate(58.27000427246094,0)"><g><rect fill="#333" fill-opacity="0" stroke-width="2" x="0" y="0" width="60" height="60.018005401620485" class="image-rect"></rect> <svg x="0" y="0" width="60" height="60.018005401620485" filtersec="colorsb1500240048" class="image-svg-svg primary" style="overflow: visible;"><svg xmlns="http://www.w3.org/2000/svg" viewBox="0.01032400131225586 0.0124664306640625 171.0183563232422 171.0697784423828"><path d="M123.14 39.2a162.17 162.17 0 0 0-11.74 29.26 206.56 206.56 0 0 0-7.7 48.42 301.22 301.22 0 0 0 1.91 47.58c.49 4.38.55 4.32-3.64 5.11a90.77 90.77 0 0 1-33 0c-1.74-.31-1.94-1.22-1.84-2.59.48-6.22.82-12.46 1.46-18.67A251.3 251.3 0 0 1 76.83 105 210.88 210.88 0 0 1 127 17c4-4.23 4-4.26 8.77-.7 20.61 15.4 32.58 35.93 34.87 61.48 2.24 24.92-5.21 47-22.14 65.68a96.83 96.83 0 0 1-11.79 10.75c-1.38 1.1-2 1-2.6-.69a252.34 252.34 0 0 1-9.93-34.52 204.69 204.69 0 0 1-4-53.13 170.31 170.31 0 0 1 2.92-24 4.42 4.42 0 0 0 .04-2.67z" fill="#27aae1"></path><path d="M4.92 113.65C-5 87.25-1.17 48.41 28.31 21.82 57-4.07 96.86-5 123.42 9.06 75.64 34.56 35.34 68.22 4.92 113.65zM83.37 54.19a200.08 200.08 0 0 0-12.73 18.52c-11.83 19.09-20.38 39.62-26.55 61.17a216.53 216.53 0 0 0-5 21.12c-.28 1.53-.68 1.8-2 .84A89.61 89.61 0 0 1 19.81 140a2.47 2.47 0 0 1-.53-3.11c8.89-16.89 18.38-33.37 29.88-48.64a176.78 176.78 0 0 1 20.91-23.76 73.11 73.11 0 0 1 13.3-10.3z" fill="#bf202f"></path></svg></svg> <!----></g></g> <g transform="translate(0,67.01800918579102)"><g data-gra="path-name" fill-rule="" class="tp-name iconsvg-namesvg"><g transform="scale(1)"><g><path d="M9.8-26.11L26.24-26.11 29.41-2.5 22.23-2.5 21.4-8.93 11.39-8.93 8.59-2.5 1.79-2.5 11.01-24.95 9.8-26.11ZM19.81-22.11L17.02-22.11 13.02-12.93 21.02-12.93 19.81-22.11ZM34.37-20.11L42.47-20.11 41.67-14.52 47.3-20.11 55.31-20.11 41.67-8.09 40.88-2.5 32.87-2.5 35.21-18.94 34.37-20.11ZM60.03-20.11L60.36-22.53 59.57-23.74 68.37-23.74 67.83-20.11 72.79-20.11 71.96-16.1 67.33-16.1 65.95-6.51 69.96-6.51 69.16-2.5 60.36-2.5Q59.15-2.5 58.4-3.3 57.65-4.09 57.94-5.3L57.94-5.3 59.57-16.1 56.36-16.1 56.77-20.11 60.03-20.11ZM86.52-26.11L85.72-21.32 78.09-21.32 78.51-26.11 86.52-26.11ZM76.51-20.11L85.72-20.11 83.3-2.5 75.3-2.5 77.71-18.94 76.51-20.11ZM99.82-10.1L104.62-20.11 112.25-20.11 102.62-2.5 94.61-2.5 90.23-18.52 89.02-20.11 97.45-20.11 99.82-10.1ZM125.98-26.11L125.19-21.32 117.55-21.32 117.97-26.11 125.98-26.11ZM115.97-20.11L125.19-20.11 122.77-2.5 114.76-2.5 117.18-18.94 115.97-20.11ZM131.32-20.11L149.34-20.11Q150.55-20.11 151.15-19.13 151.76-18.15 151.76-16.94L151.76-16.94 149.76-2.5 131.74-2.5Q130.53-2.5 129.92-3.3 129.32-4.09 129.32-5.3L129.32-5.3 131.32-20.11ZM143.75-16.1L138.91-16.1 137.33-6.51 142.12-6.51 143.75-16.1ZM156.31-20.11L178.33-20.11 175.91-2.5 167.9-2.5 169.9-16.1 165.11-16.1 163.11-2.5 155.1-2.5 157.52-18.94 156.31-20.11Z" transform="translate(-1.7899999618530273, 26.110000610351562)"></path></g> <!----> <!----> <!----> <!----> <!----> <!----> <!----></g></g> <!----></g></g><defs v-gra="od"></defs></svg>